Coordinates
version=1
nRows=11
nColumns=40
inDegrees=yes

Units are S.I. units (second, meters, Newtons, ...)
Angles are in degrees.

endheader
time	pelvis_tilt	pelvis_list	pelvis_rotation	pelvis_tx	pelvis_ty	pelvis_tz	hip_flexion_r	hip_adduction_r	hip_rotation_r	knee_angle_r	knee_angle_r_beta	ankle_angle_r	subtalar_angle_r	mtp_angle_r	hip_flexion_l	hip_adduction_l	hip_rotation_l	knee_angle_l	knee_angle_l_beta	ankle_angle_l	subtalar_angle_l	mtp_angle_l	lumbar_extension	lumbar_bending	lumbar_rotation	arm_flex_r	arm_add_r	arm_rot_r	elbow_flex_r	pro_sup_r	wrist_flex_r	wrist_dev_r	arm_flex_l	arm_add_l	arm_rot_l	elbow_flex_l	pro_sup_l	wrist_flex_l	wrist_dev_l
      9.30000000	     -0.94777380	     -5.67127097	      3.09880123	      0.98912970	      0.93146575	      0.51736797	      9.80053391	      3.43091277	    -13.92032551	     17.07739519	     17.07739519	      9.85991075	     -3.37428720	     -6.36786413	     27.70519016	    -13.03654599	      2.49740613	     68.59448070	     68.59448070	      4.26745467	    -18.70101558	     12.61275053	    -10.15958998	      5.64133114	      1.37226405	     19.81600303	    -18.75743353	     -2.05717742	     69.73529355	     43.74735459	      0.00000000	      0.00000000	      3.46252547	     -9.33813997	     -5.00951760	     29.50316739	     44.24159166	      0.00000000	      0.00000000
      9.31335714	     -1.13732871	     -5.51508387	      3.45168393	      0.98807549	      0.93187149	      0.51847419	      9.51078398	      3.39962243	    -14.07019812	     16.77155140	     16.77155140	     10.02449044	     -3.51441679	     -6.34362240	     29.01292521	    -13.08500028	      1.96626220	     67.03727702	     67.03727702	      5.03527610	    -18.99739214	     12.73012691	    -10.10583797	      5.34376545	      1.73991935	     21.33515309	    -18.99634946	     -2.28330351	     70.56643973	     43.73908012	      0.00000000	      0.00000000	      2.61700582	     -8.87766233	     -4.92451636	     29.03825618	     44.22297886	      0.00000000	      0.00000000
      9.32671429	     -1.18401433	     -5.35310753	      3.89406770	      0.98713498	      0.93253239	      0.51944169	      8.86119127	      3.44459705	    -14.11882971	     16.06194834	     16.06194834	     10.07509412	     -3.78094126	     -6.17911948	     30.04911014	    -13.01703627	      1.49585073	     65.24167677	     65.24167677	      6.15671344	    -19.16818507	     13.96991563	    -10.29664153	      5.13901163	      1.03959140	     23.16141406	    -18.31849808	     -2.33076853	     73.25164750	     43.68309006	      0.00000000	      0.00000000	      1.41841333	     -8.67400009	     -4.76600793	     27.87299603	     44.21920133	      0.00000000	      0.00000000
      9.34007143	     -1.36221730	     -5.16546884	      4.28035996	      0.98606887	      0.93291429	      0.52025900	      8.49316854	      3.39845117	    -14.19467645	     15.61089882	     15.61089882	     10.12995518	     -4.07709832	     -6.21652210	     31.15281688	    -12.75881723	      1.09026958	     63.29734051	     63.29734051	      7.93160022	    -19.22759241	     17.19819466	    -10.36986339	      4.87811090	      1.57849922	     23.92784331	    -18.93005754	     -2.58714446	     76.48187818	     43.68834098	      0.00000000	      0.00000000	      0.95773336	     -8.21575416	     -4.58233818	     26.85465319	     44.31883367	      0.00000000	      0.00000000
      9.35342857	     -1.54473579	     -4.93684435	      4.65910422	      0.98504227	      0.93331843	      0.52094714	      8.12477084	      3.28474308	    -14.32733954	     15.16621255	     15.16621255	     10.24617886	     -4.18666687	     -6.12328656	     31.94284926	    -12.46408604	      0.51883859	     60.75907812	     60.75907812	      8.66170778	    -19.28349280	     17.48551847	    -10.39608389	      4.54660329	      1.59274266	     25.52453347	    -18.81997520	     -2.90002662	     77.74962001	     43.67862844	      0.00000000	      0.00000000	      0.10065332	     -7.92820311	     -4.50645282	     26.32834949	     44.31303775	      0.00000000	      0.00000000
      9.36678571	     -1.70638354	     -4.76151982	      5.08836243	      0.98399780	      0.93366314	      0.52136578	      7.71829488	      3.21541566	    -14.52831581	     14.68298127	     14.68298127	     10.34699844	     -4.27192044	     -6.02601808	     32.58013648	    -12.02789407	      0.15029446	     57.89371988	     57.89371988	      9.35637204	    -19.28551688	     17.84606816	    -10.47180120	      4.31764427	      1.45075391	     27.00635028	    -18.61883907	     -3.19269162	     79.50104258	     43.65922415	      0.00000000	      0.00000000	     -0.76213161	     -7.62640413	     -4.43908356	     25.78525697	     44.31769071	      0.00000000	      0.00000000
      9.38014286	     -2.05961311	     -4.61078636	      5.49752171	      0.98278803	      0.93362574	      0.52154825	      7.61576165	      3.11349643	    -14.75299126	     14.35115534	     14.35115534	     10.45074794	     -4.40948398	     -5.98243376	     33.29070547	    -11.42334239	     -0.04026979	     54.71834900	     54.71834900	      9.88379138	    -19.21611348	     18.01920118	    -10.32564258	      4.11090222	      1.66393574	     28.44294448	    -18.90404464	     -3.48067466	     80.46125288	     43.65041122	      0.00000000	      0.00000000	     -1.41713911	     -7.25934955	     -4.40199617	     25.50082170	     44.30943139	      0.00000000	      0.00000000
      9.39350000	     -2.28104181	     -4.34885717	      5.91509360	      0.98176224	      0.93382864	      0.52145874	      7.30050139	      2.89309348	    -14.95902132	     13.94405390	     13.94405390	     10.56875179	     -4.43509238	     -5.94709385	     33.54937328	    -10.52085383	     -0.01994106	     51.08399207	     51.08399207	     10.29058124	    -19.09880180	     18.01270677	    -10.34505053	      3.77178039	      1.58845472	     29.72702575	    -18.75270589	     -3.68776574	     81.97070127	     43.62460494	      0.00000000	      0.00000000	     -2.08877642	     -7.07444754	     -4.38563283	     25.14766417	     44.31107776	      0.00000000	      0.00000000
      9.40685714	     -2.48356162	     -4.09230094	      6.35993764	      0.98072019	      0.93397396	      0.52105342	      6.95044699	      2.64654349	    -15.30332512	     13.52407016	     13.52407016	     10.70134859	     -4.30180411	     -5.97794402	     33.60326095	     -9.48584282	      0.25391931	     47.14005810	     47.14005810	     10.35260352	    -18.82134596	     17.47272996	    -10.45947313	      3.53168414	      1.42767375	     30.82360352	    -18.51777348	     -3.92589108	     83.90864860	     43.59289446	      0.00000000	      0.00000000	     -2.72315533	     -6.88372202	     -4.40095521	     24.84155331	     44.32770690	      0.00000000	      0.00000000
      9.42021429	     -2.76202999	     -3.98480493	      6.79665404	      0.97979516	      0.93375901	      0.52052550	      6.71306644	      2.49481733	    -15.95847243	     13.16871480	     13.16871480	     10.84309350	     -3.71212009	     -6.27447061	     33.47171149	     -8.60661277	      0.65146288	     42.75736212	     42.75736212	      8.92546861	    -18.38713852	     12.84741647	    -10.49749997	      3.44186401	      2.08094777	     31.07366830	    -19.07924953	     -4.94643344	     87.13361346	     43.63380294	      0.00000000	      0.00000000	     -2.93769763	     -6.55294285	     -4.62925763	     24.77762669	     44.49010328	      0.00000000	      0.00000000
      9.43357143	     -3.02391155	     -3.82017922	      7.20576996	      0.97889512	      0.93356364	      0.51986220	      6.48904117	      2.32925630	    -16.17185307	     12.86902039	     12.86902039	     10.97759040	     -3.81751304	     -6.29334686	     33.30640381	     -7.58405066	      1.39670326	     38.63304513	     38.63304513	      9.03385284	    -17.26120230	     12.51713627	    -10.45312212	      3.25949863	      2.02366344	     32.21519469	    -18.97325650	     -5.11826729	     87.97455758	     43.63789454	      0.00000000	      0.00000000	     -3.33542328	     -6.36791979	     -4.61571265	     24.51286235	     44.50480490	      0.00000000	      0.00000000
